<?xml version="1.0" standalone="no"?>
<!DOCTYPE svg PUBLIC "-//W3C//DTD SVG 20010904//EN"
 "http://www.w3.org/TR/2001/REC-SVG-20010904/DTD/svg10.dtd">
<svg version="1.0" xmlns="http://www.w3.org/2000/svg"
 width="1280.000000pt" height="1280.000000pt" viewBox="0 0 1280.000000 1280.000000"
 preserveAspectRatio="xMidYMid meet">
<g transform="translate(0.000000,1280.000000) scale(0.100000,-0.100000)"
fill="#000000" stroke="none">
<path d="M6241 12784 c-25 -11 -41 -12 -65 -5 -21 7 -58 7 -116 0 -47 -6 -110
-11 -140 -10 -31 1 -87 -4 -125 -10 -39 -6 -105 -13 -147 -15 -42 -2 -96 -9
-120 -15 -24 -6 -84 -15 -135 -20 -50 -5 -111 -16 -135 -25 -23 -9 -56 -16
-73 -15 -43 2 -176 -28 -204 -46 -12 -8 -32 -13 -42 -10 -25 7 -145 -21 -191
-44 -21 -11 -52 -19 -71 -19 -37 0 -151 -35 -182 -57 -11 -7 -31 -13 -45 -13
-33 0 -162 -43 -192 -64 -12 -9 -33 -16 -46 -16 -31 0 -177 -57 -192 -75 -7
-8 -23 -15 -37 -15 -32 0 -162 -56 -189 -81 -11 -10 -28 -19 -38 -19 -28 0
-155 -58 -188 -85 -16 -14 -38 -25 -47 -25 -24 0 -150 -67 -182 -96 -14 -13
-33 -24 -43 -24 -24 0 -114 -52 -167 -96 -22 -19 -48 -34 -56 -34 -23 0 -123
-64 -157 -99 -17 -17 -37 -31 -46 -31 -19 0 -113 -62 -160 -105 -19 -18 -52
-40 -73 -50 -20 -10 -67 -45 -105 -79 -37 -35 -76 -66 -86 -70 -29 -10 -121
-87 -142 -118 -11 -15 -31 -32 -46 -37 -15 -5 -64 -45 -109 -88 -344 -327
-366 -349 -395 -395 -13 -20 -32 -39 -42 -42 -19 -7 -105 -100 -125 -139 -7
-12 -43 -53 -81 -91 -37 -37 -74 -83 -82 -102 -8 -19 -23 -40 -35 -46 -28 -18
-108 -122 -120 -158 -6 -17 -19 -35 -29 -40 -22 -12 -104 -126 -115 -160 -4
-14 -27 -47 -51 -73 -24 -27 -58 -78 -75 -113 -17 -35 -38 -69 -46 -76 -18
-15 -89 -136 -98 -168 -4 -14 -19 -38 -33 -55 -29 -35 -92 -162 -92 -186 0 -9
-10 -24 -21 -35 -25 -22 -89 -150 -89 -177 0 -10 -11 -33 -24 -50 -31 -41 -76
-149 -76 -181 0 -14 -5 -28 -11 -32 -18 -11 -69 -130 -79 -186 -6 -29 -17 -59
-25 -68 -19 -21 -65 -155 -65 -189 0 -14 -7 -35 -16 -46 -20 -26 -54 -139 -54
-179 0 -17 -7 -41 -15 -52 -19 -28 -55 -160 -55 -204 0 -20 -4 -40 -9 -45 -15
-16 -41 -129 -41 -179 0 -26 -6 -59 -14 -74 -13 -25 -30 -112 -40 -207 -3 -22
-12 -76 -21 -120 -9 -44 -13 -95 -10 -112 3 -18 1 -43 -6 -55 -13 -25 -31
-232 -34 -388 -1 -58 -7 -123 -14 -146 -8 -25 -11 -62 -7 -100 8 -74 8 -114 0
-188 -4 -36 -1 -76 7 -104 7 -25 13 -91 14 -146 3 -156 15 -317 26 -360 6 -21
12 -75 15 -120 2 -44 9 -99 15 -121 6 -22 15 -78 19 -125 5 -47 16 -105 25
-130 10 -25 17 -58 17 -73 -2 -41 25 -162 43 -197 8 -16 15 -44 15 -62 0 -30
20 -110 48 -193 6 -16 17 -61 26 -100 9 -38 28 -93 41 -121 14 -28 25 -63 25
-77 0 -31 45 -154 64 -177 7 -8 16 -34 19 -58 3 -23 23 -80 46 -125 22 -45 43
-95 47 -112 11 -46 53 -137 80 -172 13 -17 24 -41 24 -53 0 -26 54 -135 86
-173 13 -16 24 -37 24 -48 0 -25 39 -100 84 -164 20 -27 36 -56 36 -64 0 -18
66 -127 102 -169 15 -18 28 -39 28 -47 0 -18 86 -145 109 -162 10 -7 22 -25
26 -40 8 -33 82 -139 119 -170 14 -13 26 -29 26 -36 0 -18 95 -144 121 -160
11 -6 29 -31 40 -54 11 -23 48 -70 82 -105 34 -35 71 -76 81 -93 21 -33 161
-180 310 -325 8 -8 43 -45 76 -82 34 -36 74 -72 90 -78 16 -7 32 -21 35 -31 7
-22 134 -134 163 -143 10 -4 24 -16 31 -29 15 -26 106 -101 150 -123 17 -8 37
-24 45 -35 19 -27 122 -107 149 -115 12 -3 40 -23 62 -44 55 -52 143 -110 166
-110 11 0 22 -7 26 -16 8 -21 150 -114 174 -114 10 0 28 -11 41 -24 29 -31
157 -106 180 -106 9 0 30 -12 45 -26 34 -31 155 -94 182 -94 10 0 25 -7 32
-17 18 -21 167 -93 193 -93 11 0 29 -9 40 -19 26 -24 157 -81 187 -81 12 0 30
-7 40 -16 24 -22 156 -74 186 -74 14 0 40 -9 58 -20 43 -27 141 -60 176 -60
15 0 49 -11 76 -25 51 -26 151 -55 190 -55 13 0 34 -6 46 -14 30 -20 136 -46
184 -46 21 0 44 -5 50 -11 15 -15 120 -38 176 -39 26 0 60 -6 75 -14 31 -16
153 -38 197 -35 17 1 44 -4 60 -10 17 -7 73 -15 125 -18 52 -2 110 -9 129 -15
34 -11 159 -19 367 -23 67 -2 131 -8 142 -14 27 -15 127 -14 168 1 26 9 41 9
74 -2 34 -11 53 -11 118 0 42 7 107 12 143 11 36 -1 94 3 130 9 35 6 105 12
154 14 50 1 106 8 125 13 19 6 76 14 127 17 50 3 109 12 130 20 21 8 72 17
113 19 41 3 95 13 120 22 25 9 63 18 85 20 62 4 158 25 182 41 12 8 37 14 55
14 39 0 151 31 196 54 17 9 44 16 60 16 34 0 163 43 194 64 12 9 34 16 49 16
36 0 138 36 171 60 15 11 40 20 55 20 34 1 152 50 189 79 15 11 38 21 51 21
31 0 163 61 182 83 7 9 24 17 37 17 28 0 154 61 173 84 7 8 34 22 60 31 55 18
162 80 174 100 4 7 21 17 39 20 38 9 121 57 163 95 17 16 41 31 55 35 38 12
157 91 169 113 6 11 23 23 38 27 34 8 150 89 166 117 7 10 26 26 44 33 42 18
141 93 154 117 5 10 27 27 49 38 21 11 70 50 108 87 37 38 81 75 96 82 15 8
60 49 101 90 41 42 95 94 121 116 26 22 62 61 81 87 19 26 43 50 54 53 10 4
44 36 74 73 30 37 86 99 124 137 37 39 75 84 84 100 8 17 44 60 79 96 35 36
72 83 82 104 11 22 30 48 43 58 33 26 98 116 117 161 8 20 20 36 25 36 13 0
111 138 111 156 0 7 13 28 29 46 41 48 96 137 110 180 7 21 19 41 26 45 18 11
82 117 96 162 7 20 23 50 37 66 29 35 82 142 82 167 0 9 12 30 26 47 29 35 83
155 84 187 0 11 9 29 20 39 21 19 80 162 80 193 0 11 8 30 18 43 25 33 61 124
69 173 3 22 15 55 25 73 24 39 58 148 58 183 0 14 6 34 14 45 18 27 46 115 56
178 5 29 18 79 30 112 12 32 25 89 30 125 4 36 16 85 25 110 9 25 19 79 22
120 3 41 10 80 15 86 12 16 40 183 34 201 -4 8 1 36 10 61 8 26 17 88 19 137
2 50 9 115 15 145 6 30 10 87 10 125 -1 39 4 108 10 154 8 55 9 96 2 121 -7
27 -6 46 4 70 17 40 18 142 2 187 -9 25 -9 41 0 66 8 23 8 51 1 102 -6 39 -12
121 -14 183 -2 62 -8 127 -13 145 -5 18 -10 67 -10 110 0 42 -7 101 -15 130
-8 28 -15 79 -16 112 0 33 -8 85 -17 115 -9 30 -17 81 -19 113 -4 65 -30 174
-46 193 -6 7 -8 22 -4 33 6 21 -29 177 -45 196 -6 7 -12 34 -14 61 -5 56 -42
180 -56 189 -6 3 -10 21 -10 39 0 38 -41 165 -64 198 -9 12 -16 34 -16 49 0
33 -45 153 -71 190 -10 15 -19 38 -19 52 0 32 -47 145 -72 172 -10 12 -21 36
-24 55 -10 48 -50 137 -79 176 -14 18 -25 40 -25 49 0 22 -68 154 -96 188 -13
16 -24 35 -24 43 0 24 -57 130 -90 167 -16 19 -30 41 -30 49 0 19 -65 126 -99
163 -16 17 -33 45 -39 63 -13 38 -88 148 -106 155 -7 3 -25 29 -39 59 -15 30
-51 82 -82 115 -30 34 -55 65 -55 71 0 15 -99 139 -126 156 -13 9 -30 31 -38
49 -7 18 -46 67 -87 110 -41 42 -92 100 -113 128 -22 28 -57 64 -79 80 -22 16
-48 42 -57 57 -21 32 -134 142 -148 142 -6 0 -19 15 -29 33 -11 18 -48 55 -81
82 -34 28 -95 82 -135 120 -41 39 -87 77 -103 85 -16 8 -53 39 -82 68 -29 29
-77 66 -107 83 -31 17 -61 39 -68 48 -18 26 -137 111 -154 111 -8 0 -27 13
-41 28 -35 36 -111 88 -165 112 -24 11 -52 29 -62 40 -23 25 -120 85 -155 95
-14 4 -36 18 -50 30 -34 32 -152 95 -177 95 -11 0 -28 10 -39 21 -21 24 -169
99 -195 99 -9 0 -23 7 -30 16 -18 22 -155 84 -184 84 -12 0 -34 10 -49 21 -35
28 -154 78 -184 79 -13 0 -36 9 -51 20 -29 20 -168 70 -197 70 -9 0 -31 8 -48
19 -40 24 -119 49 -174 55 -24 2 -49 10 -57 16 -22 18 -136 50 -180 50 -22 0
-50 6 -61 14 -28 20 -133 46 -186 46 -24 0 -49 5 -55 11 -15 15 -127 38 -184
39 -26 0 -63 7 -83 15 -21 9 -81 20 -134 25 -53 4 -117 13 -142 19 -25 5 -80
10 -122 11 -42 0 -88 4 -103 10 -14 5 -78 12 -143 14 -64 3 -147 9 -184 14
-36 4 -75 5 -85 1 -27 -11 -81 -10 -88 1 -10 16 -185 11 -224 -6z m379 -1290
c63 -2 138 -9 165 -14 28 -6 79 -11 115 -11 36 -1 85 -7 110 -15 25 -8 83 -18
130 -23 47 -6 123 -19 170 -30 47 -11 99 -21 115 -21 17 0 35 -4 40 -9 12 -12
136 -41 173 -41 15 0 36 -6 47 -14 25 -17 154 -56 186 -56 14 0 34 -7 46 -15
25 -17 154 -65 176 -65 8 0 46 -15 84 -34 37 -19 93 -42 123 -52 30 -9 67 -26
82 -36 32 -22 161 -78 181 -78 8 0 20 -7 28 -16 15 -18 162 -94 182 -94 8 0
22 -9 33 -21 21 -24 119 -83 155 -94 13 -4 40 -22 60 -40 20 -18 67 -50 105
-70 38 -21 85 -53 104 -70 37 -34 138 -105 149 -105 4 0 33 -25 65 -55 32 -31
78 -67 101 -81 24 -14 50 -35 58 -48 9 -12 43 -45 77 -72 34 -27 102 -87 150
-134 49 -47 96 -92 105 -100 8 -8 38 -42 66 -74 27 -33 63 -69 79 -80 16 -12
35 -33 41 -49 6 -15 42 -59 80 -98 38 -38 69 -74 69 -79 0 -13 119 -160 129
-160 5 0 14 -13 19 -29 11 -32 78 -127 106 -150 9 -7 30 -41 46 -75 16 -33 47
-84 68 -112 21 -27 51 -76 66 -109 14 -32 41 -79 60 -105 18 -26 37 -58 41
-71 13 -42 73 -155 89 -168 9 -8 16 -22 16 -33 0 -25 46 -131 77 -178 13 -19
23 -43 23 -52 0 -24 49 -147 72 -180 10 -14 18 -37 18 -50 0 -31 38 -144 62
-183 10 -16 18 -44 18 -61 0 -17 12 -65 26 -105 14 -41 29 -96 34 -124 14 -86
30 -146 46 -177 8 -16 13 -37 10 -46 -3 -9 4 -57 15 -107 11 -49 24 -133 29
-186 5 -52 14 -107 19 -123 6 -15 11 -58 11 -95 0 -38 5 -93 10 -122 6 -30 12
-108 15 -174 4 -141 4 -113 0 -300 -7 -271 -11 -350 -18 -362 -4 -6 -9 -56
-12 -110 -2 -54 -9 -116 -14 -139 -6 -22 -15 -78 -20 -125 -5 -46 -16 -111
-25 -144 -9 -33 -16 -79 -16 -103 0 -24 -6 -56 -14 -71 -18 -33 -46 -151 -46
-189 0 -15 -6 -36 -14 -47 -17 -25 -56 -162 -56 -197 0 -14 -6 -30 -13 -36 -7
-6 -26 -53 -42 -104 -16 -51 -43 -124 -61 -163 -18 -38 -38 -92 -45 -120 -6
-27 -18 -58 -26 -67 -19 -21 -68 -124 -77 -162 -4 -16 -18 -43 -31 -60 -27
-36 -85 -154 -85 -174 0 -8 -15 -31 -32 -52 -31 -36 -63 -91 -88 -150 -6 -14
-28 -47 -50 -75 -22 -27 -52 -75 -67 -105 -15 -30 -33 -59 -40 -63 -16 -10
-113 -146 -113 -159 0 -5 -21 -31 -47 -58 -27 -26 -59 -67 -73 -91 -14 -24
-44 -61 -68 -83 -24 -22 -62 -65 -85 -95 -36 -47 -107 -124 -215 -233 -125
-124 -203 -198 -211 -198 -5 0 -43 -33 -85 -72 -42 -40 -95 -84 -117 -98 -23
-14 -64 -46 -91 -72 -27 -26 -64 -54 -82 -63 -18 -9 -60 -38 -92 -66 -32 -27
-74 -56 -92 -64 -48 -23 -134 -80 -155 -103 -10 -11 -30 -23 -45 -27 -32 -8
-136 -68 -175 -101 -16 -13 -35 -24 -43 -24 -20 0 -148 -65 -163 -84 -7 -8
-27 -18 -44 -22 -29 -6 -152 -61 -187 -83 -8 -5 -40 -17 -70 -26 -30 -9 -82
-29 -115 -45 -33 -16 -94 -38 -135 -50 -41 -12 -89 -29 -105 -39 -17 -10 -51
-20 -75 -24 -25 -3 -70 -15 -100 -25 -30 -11 -68 -24 -85 -30 -16 -6 -61 -16
-100 -23 -38 -6 -91 -20 -116 -31 -26 -11 -53 -18 -60 -17 -23 5 -132 -12
-169 -26 -19 -7 -72 -16 -118 -19 -46 -4 -102 -13 -124 -21 -23 -7 -53 -12
-67 -9 -14 3 -62 0 -106 -6 -194 -27 -735 -27 -944 0 -46 6 -92 8 -102 5 -10
-3 -39 1 -65 10 -26 8 -84 17 -130 20 -46 2 -89 7 -95 11 -20 12 -131 33 -175
34 -22 0 -54 6 -70 14 -16 8 -69 22 -119 32 -49 9 -103 23 -120 29 -49 21
-141 45 -169 45 -15 0 -37 7 -50 15 -29 19 -163 65 -190 65 -12 0 -32 9 -46
20 -13 10 -63 31 -110 46 -47 15 -92 31 -100 35 -67 38 -132 69 -170 80 -25 7
-54 20 -65 30 -22 19 -127 72 -165 84 -14 4 -38 18 -53 31 -15 13 -62 40 -105
61 -42 20 -94 52 -116 70 -21 18 -68 47 -105 65 -36 18 -70 39 -74 46 -10 16
-147 112 -160 112 -5 0 -39 28 -75 61 -37 34 -86 71 -109 82 -24 12 -43 25
-43 29 0 12 -94 98 -133 123 -18 11 -67 54 -109 95 -42 41 -86 84 -98 95 -11
11 -48 50 -81 87 -33 37 -69 70 -79 73 -10 3 -23 19 -30 35 -7 16 -45 63 -86
104 -41 42 -74 78 -74 82 0 11 -87 119 -119 147 -17 15 -31 32 -31 38 0 15
-81 128 -114 158 -14 14 -26 29 -26 35 0 16 -74 133 -103 164 -14 15 -28 38
-32 51 -11 35 -70 134 -94 155 -12 11 -21 27 -21 36 0 21 -65 147 -90 175 -10
11 -22 34 -26 50 -11 44 -51 132 -79 173 -14 20 -25 45 -25 55 0 26 -58 163
-76 178 -8 6 -14 24 -14 39 0 33 -33 132 -60 177 -11 19 -20 44 -20 56 0 31
-36 155 -53 181 -8 11 -16 46 -19 76 -4 30 -16 82 -28 115 -12 33 -21 69 -21
80 1 32 -28 174 -39 195 -5 10 -10 40 -10 67 0 26 -7 77 -15 113 -9 36 -18
107 -20 159 -2 52 -9 108 -14 125 -5 17 -10 74 -10 126 0 52 -5 109 -10 127
-5 17 -6 47 -2 65 4 18 4 74 0 123 -4 52 -3 108 3 133 6 23 8 80 6 125 -3 45
-1 93 4 106 5 13 11 70 13 125 2 56 11 139 19 185 9 47 13 94 10 105 -3 12 2
37 10 56 8 19 19 73 26 120 6 47 20 114 31 148 11 35 22 92 26 125 3 34 12 71
19 82 14 24 39 112 49 175 4 25 11 50 16 56 15 18 59 155 59 182 0 14 6 33 14
41 19 21 64 134 72 180 4 20 12 43 19 51 21 25 62 113 75 160 6 25 20 54 30
65 24 27 66 111 79 163 7 23 16 42 20 42 13 0 91 135 98 170 3 18 12 34 19 37
14 5 86 112 105 158 8 17 32 52 55 79 23 27 55 72 70 100 15 28 49 75 76 104
26 30 60 73 73 97 14 23 56 74 94 113 37 39 74 84 81 101 6 17 21 33 31 36 11
4 46 39 79 78 34 40 66 77 72 82 6 6 53 51 104 100 51 50 118 110 149 135 31
25 64 57 73 73 9 15 25 30 36 33 25 8 156 112 156 123 0 5 30 26 67 47 36 22
86 58 110 82 24 23 49 42 55 42 15 0 116 66 153 100 17 15 41 31 54 35 33 10
118 62 159 97 18 15 39 28 48 28 21 0 126 55 161 84 17 14 38 26 46 26 23 0
161 66 176 84 7 9 22 16 32 16 24 0 146 48 179 70 14 9 56 25 94 35 38 10 95
31 125 46 31 16 66 29 77 29 19 0 70 16 189 58 17 6 59 16 95 22 36 6 85 20
109 31 24 10 60 19 80 19 20 0 70 9 111 21 41 11 100 21 131 23 31 3 85 12
120 21 35 9 102 18 149 20 47 3 101 9 120 15 19 5 78 10 130 11 52 1 105 4
118 7 22 7 329 4 572 -4z"/>
<path d="M5875 11109 c-237 -24 -325 -37 -525 -76 -536 -104 -1033 -295 -1510
-581 -572 -342 -1102 -846 -1482 -1407 -373 -551 -620 -1160 -737 -1820 -19
-105 -25 -150 -53 -380 -16 -135 -16 -746 0 -890 88 -770 298 -1401 670 -2010
455 -746 1110 -1354 1876 -1745 415 -211 780 -340 1214 -429 515 -106 1113
-121 1646 -41 878 131 1690 503 2374 1088 216 184 520 508 693 737 311 411
568 903 727 1395 173 533 254 1141 223 1671 -14 247 -50 546 -85 711 -96 449
-205 766 -396 1153 -54 110 -130 253 -168 317 -435 728 -1050 1325 -1787 1735
-403 225 -864 395 -1320 488 -356 73 -593 95 -985 94 -162 -1 -331 -5 -375
-10z m925 -503 c210 -27 265 -37 248 -47 -9 -5 -103 -5 -219 1 -112 5 -328 14
-479 21 -668 30 -1054 -59 -1260 -289 -62 -69 -126 -195 -141 -277 -46 -248
121 -613 465 -1020 99 -118 314 -342 418 -437 91 -82 102 -89 131 -84 18 3
289 12 602 21 l570 15 78 83 c43 45 127 140 185 210 357 429 573 838 589 1112
9 155 -30 272 -127 378 -29 32 -51 60 -48 62 7 7 196 -73 356 -150 181 -88
397 -215 564 -332 129 -90 271 -200 276 -213 2 -4 -41 -8 -95 -8 -79 0 -113
-5 -171 -25 -248 -86 -480 -410 -680 -948 -52 -139 -136 -412 -172 -559 l-21
-85 305 -515 c168 -283 314 -520 323 -527 40 -25 432 -107 658 -137 352 -47
696 -36 891 29 200 68 333 214 366 403 7 40 16 68 20 64 5 -5 19 -64 33 -133
62 -320 88 -675 74 -1010 -8 -174 -34 -437 -44 -447 -2 -2 -7 9 -10 24 -38
170 -75 251 -153 335 -138 149 -331 207 -655 195 -318 -11 -639 -74 -1060
-207 l-157 -50 -270 -539 c-149 -297 -270 -549 -270 -559 0 -11 20 -75 44
-143 269 -756 592 -1228 906 -1326 82 -25 217 -22 303 7 162 55 338 219 495
462 126 194 508 834 589 987 36 68 67 121 69 119 3 -2 -11 -49 -31 -105 -98
-282 -260 -607 -441 -882 -630 -962 -1631 -1630 -2754 -1840 -422 -79 -943
-92 -1360 -34 -1024 142 -1949 643 -2630 1424 -89 103 -247 309 -327 430 -315
473 -535 1022 -637 1585 -76 419 -86 895 -30 1315 176 1304 947 2452 2088
3110 546 314 1134 494 1806 554 115 10 671 -3 790 -18z"/>
<path d="M3870 9624 c-156 -27 -276 -99 -420 -251 -100 -105 -187 -226 -383
-533 -79 -124 -191 -299 -249 -390 -295 -461 -412 -748 -411 -1015 1 -303 166
-518 454 -589 53 -13 123 -16 386 -16 296 0 333 2 467 25 235 40 675 152 703
179 6 6 38 61 71 121 33 61 161 297 285 526 l226 416 -38 124 c-233 757 -555
1267 -872 1378 -55 20 -173 33 -219 25z"/>
<path d="M6259 8284 c-133 -40 -249 -183 -249 -305 0 -37 0 -38 48 -44 26 -3
54 -7 62 -8 8 -1 18 -19 22 -40 36 -174 221 -259 367 -170 56 35 107 114 116
182 l7 49 58 6 c36 4 60 12 64 21 9 24 -23 117 -60 171 -68 100 -178 154 -311
153 -43 0 -99 -7 -124 -15z"/>
<path d="M7592 6894 c-97 -48 -148 -157 -122 -265 18 -75 93 -151 168 -169
110 -26 213 20 264 119 106 204 -104 418 -310 315z"/>
<path d="M5036 6866 c-54 -20 -85 -45 -120 -94 -34 -48 -45 -130 -27 -197 24
-91 126 -165 226 -165 201 1 304 245 166 393 -59 64 -168 92 -245 63z"/>
<path d="M2981 6199 c-389 -35 -611 -162 -690 -395 -75 -225 -8 -487 239 -939
48 -88 136 -252 195 -365 251 -477 382 -677 556 -850 172 -170 342 -250 529
-250 172 1 261 41 406 185 111 110 175 201 263 375 73 143 121 257 178 425 79
234 179 618 170 660 -2 11 -125 211 -273 445 -149 234 -292 460 -319 503 -56
89 -40 81 -270 126 -386 76 -720 103 -984 80z m387 -629 c13 0 45 -12 73 -25
27 -14 54 -23 60 -20 13 9 739 -361 765 -390 12 -13 39 -32 60 -44 78 -40 274
-255 274 -300 0 -35 -46 -220 -86 -342 -51 -160 -106 -295 -176 -434 -177
-352 -359 -494 -585 -455 -245 41 -482 279 -735 740 -121 220 -416 791 -432
838 -15 40 -14 44 11 94 30 60 34 66 88 122 45 47 64 57 150 81 75 21 148 53
187 82 56 41 151 63 253 58 39 -2 80 -4 93 -5z"/>
<path d="M6220 5528 c-159 -96 -145 -335 24 -414 87 -41 188 -24 259 44 114
108 86 306 -52 379 -33 17 -60 23 -111 23 -57 0 -73 -5 -120 -32z"/>
<path d="M6166 4996 c71 -50 229 -60 308 -19 l39 20 -99 6 c-55 4 -137 7 -184
7 -76 0 -82 -1 -64 -14z"/>
<path d="M5594 4337 c-248 -252 -385 -416 -525 -631 -185 -280 -272 -546 -241
-733 26 -156 134 -299 288 -379 185 -98 339 -128 869 -174 72 -6 173 -15 225
-20 52 -5 142 -14 200 -20 507 -49 816 -27 1062 76 156 65 269 168 340 312 39
77 42 89 46 187 7 166 -26 291 -134 508 -141 282 -423 656 -696 924 l-73 73
-165 5 c-91 3 -365 7 -610 10 l-446 5 -140 -143z"/>
</g>
</svg>
